<svg width="20.000000" height="20.000000" viewBox="0 0 20 20" fill="none" xmlns="http://www.w3.org/2000/svg" xmlns:xlink="http://www.w3.org/1999/xlink">
	<desc>
			Created with Pixso.
	</desc>
	<defs/>
	<path id="Vector" d="M12.0254 15.6834C11.8672 15.6834 11.709 15.6251 11.584 15.5001C11.3418 15.2584 11.3418 14.8584 11.584 14.6168L16.2002 10.0001L11.584 5.38343C11.3418 5.14176 11.3418 4.74177 11.584 4.5001C11.8252 4.25843 12.2256 4.25843 12.4668 4.5001L17.5254 9.55843C17.7666 9.80009 17.7666 10.2001 17.5254 10.4418L12.4668 15.5001C12.3418 15.6251 12.1836 15.6834 12.0254 15.6834Z" fill="#0080FC" fill-opacity="1.000000" fill-rule="nonzero"/>
	<path id="Vector" d="M16.9424 10.625L2.91699 10.625C2.5752 10.625 2.29199 10.3417 2.29199 10C2.29199 9.65833 2.5752 9.375 2.91699 9.375L16.9424 9.375C17.2832 9.375 17.5674 9.65833 17.5674 10C17.5674 10.3417 17.2832 10.625 16.9424 10.625Z" fill="#0080FC" fill-opacity="1.000000" fill-rule="nonzero"/>
	<g opacity="0.000000"/>
</svg>
