<svg width="16.000000" height="16.000000" viewBox="0 0 16 16" fill="none" xmlns="http://www.w3.org/2000/svg" xmlns:xlink="http://www.w3.org/1999/xlink">
	<desc>
			Created with Pixso.
	</desc>
	<defs/>
	<path id="Vector" d="M9.62012 12.5468C9.49414 12.5468 9.36719 12.5001 9.2666 12.4C9.07422 12.2068 9.07422 11.8867 9.2666 11.6934L12.96 8.00012L9.2666 4.30676C9.07422 4.1134 9.07422 3.79346 9.2666 3.6001C9.45996 3.40674 9.78027 3.40674 9.97363 3.6001L14.0205 7.64673C14.2139 7.84009 14.2139 8.16003 14.0205 8.35339L9.97363 12.4C9.87402 12.5001 9.74707 12.5468 9.62012 12.5468Z" fill="#FFFFFF" fill-opacity="1.000000" fill-rule="nonzero"/>
	<path id="Vector" d="M13.5527 8.5L2.33301 8.5C2.05957 8.5 1.83301 8.27332 1.83301 8C1.83301 7.72668 2.05957 7.5 2.33301 7.5L13.5527 7.5C13.8262 7.5 14.0527 7.72668 14.0527 8C14.0527 8.27332 13.8262 8.5 13.5527 8.5Z" fill="#FFFFFF" fill-opacity="1.000000" fill-rule="nonzero"/>
	<g opacity="0.000000"/>
</svg>
