<svg width="20.000000" height="20.000000" viewBox="0 0 20 20" fill="none" xmlns="http://www.w3.org/2000/svg" xmlns:xlink="http://www.w3.org/1999/xlink">
	<desc>
			Created with Pixso.
	</desc>
	<defs/>
	<path d="M2.25879 14.1836L3.70898 11.2832C4.1084 10.4751 4.1084 9.5332 3.70898 8.7251L2.25879 5.81689C1.0166 3.3335 3.69238 0.708496 6.15039 2.0083L7.43359 2.69189C7.61719 2.7832 12.4248 5.2334 12.5 5.4165L14.583 12.5C14.7754 12.9331 15.417 13.1167 15 13.333L6.1416 17.9917C3.69238 19.2915 1.0166 16.6665 2.25879 14.1836Z" fill="#FFFFFF" fill-opacity="1.000000" fill-rule="nonzero"/>
	<path d="M13.5918 13L10.4834 6.1001C10.1338 5.32471 10.9668 4.5415 11.7168 4.94141L16.5254 7.4751C18.5674 8.5498 18.5674 11.4663 16.5254 12.5415L14.8252 13.4331C14.3672 13.6665 13.8086 13.4751 13.5918 13Z" fill="#FFFFFF" fill-opacity="1.000000" fill-rule="nonzero"/>
	<g opacity="0.000000"/>
	<g opacity="0.000000"/>
</svg>
