<svg width="16.000000" height="16.000000" viewBox="0 0 16 16" fill="none" xmlns="http://www.w3.org/2000/svg" xmlns:xlink="http://www.w3.org/1999/xlink">
	<desc>
			Created with Pixso.
	</desc>
	<defs/>
	<path id="Vector" d="M8 15.2068C7.54004 15.2068 7.10645 14.9735 6.7998 14.5668L5.7998 13.2335C5.7793 13.2068 5.69922 13.1735 5.66602 13.1669L5.33301 13.1669C2.55273 13.1669 0.833008 12.4135 0.833008 8.66687L0.833008 5.3335C0.833008 2.38684 2.38672 0.833496 5.33301 0.833496L10.666 0.833496C13.6133 0.833496 15.166 2.38684 15.166 5.3335L15.166 8.66687C15.166 11.6135 13.6133 13.1669 10.666 13.1669L10.333 13.1669C10.2793 13.1669 10.2334 13.1935 10.1992 13.2335L9.19922 14.5668C8.89258 14.9735 8.45996 15.2068 8 15.2068ZM5.33301 1.8335C2.94629 1.8335 1.83301 2.94678 1.83301 5.3335L1.83301 8.66687C1.83301 11.6802 2.86621 12.1669 5.33301 12.1669L5.66602 12.1669C6.00586 12.1669 6.39258 12.3601 6.59961 12.6335L7.59961 13.9668C7.83301 14.2734 8.16602 14.2734 8.39941 13.9668L9.39941 12.6335C9.62012 12.3402 9.9668 12.1669 10.333 12.1669L10.666 12.1669C13.0527 12.1669 14.166 11.0535 14.166 8.66687L14.166 5.3335C14.166 2.94678 13.0527 1.8335 10.666 1.8335L5.33301 1.8335Z" fill="#7339F5" fill-opacity="1.000000" fill-rule="nonzero"/>
	<path id="Vector" d="M8 7.99988C7.62598 7.99988 7.33301 7.69983 7.33301 7.33313C7.33301 6.96655 7.63281 6.6665 8 6.6665C8.36621 6.6665 8.66602 6.96655 8.66602 7.33313C8.66602 7.69983 8.37305 7.99988 8 7.99988Z" fill="#7339F5" fill-opacity="1.000000" fill-rule="nonzero"/>
	<path id="Vector" d="M10.667 7.99988C10.293 7.99988 10 7.69983 10 7.33313C10 6.96655 10.2998 6.6665 10.667 6.6665C11.0332 6.6665 11.333 6.96655 11.333 7.33313C11.333 7.69983 11.04 7.99988 10.667 7.99988Z" fill="#7339F5" fill-opacity="1.000000" fill-rule="nonzero"/>
	<path id="Vector" d="M5.33398 7.99988C4.95996 7.99988 4.66699 7.69983 4.66699 7.33313C4.66699 6.96655 4.9668 6.6665 5.33398 6.6665C5.7002 6.6665 6 6.96655 6 7.33313C6 7.69983 5.70703 7.99988 5.33398 7.99988Z" fill="#7339F5" fill-opacity="1.000000" fill-rule="nonzero"/>
	<g opacity="0.000000"/>
</svg>
