<svg width="28.000000" height="28.000000" viewBox="0 0 28 28" fill="none" xmlns="http://www.w3.org/2000/svg" xmlns:xlink="http://www.w3.org/1999/xlink">
	<desc>
			Created with Pixso.
	</desc>
	<defs/>
	<path id="Vector" d="M21 14.875L7 14.875C6.52148 14.875 6.125 14.4783 6.125 14C6.125 13.5217 6.52148 13.125 7 13.125L21 13.125C21.4785 13.125 21.875 13.5217 21.875 14C21.875 14.4783 21.4785 14.875 21 14.875Z" fill="#292D32" fill-opacity="1.000000" fill-rule="nonzero"/>
	<path id="Vector" d="M14 21.875C13.5215 21.875 13.125 21.4783 13.125 21L13.125 7C13.125 6.52173 13.5215 6.125 14 6.125C14.4785 6.125 14.875 6.52173 14.875 7L14.875 21C14.875 21.4783 14.4785 21.875 14 21.875Z" fill="#292D32" fill-opacity="1.000000" fill-rule="nonzero"/>
	<g opacity="0.000000"/>
</svg>
