<svg width="16.000000" height="16.000000" viewBox="0 0 16 16" fill="none" xmlns="http://www.w3.org/2000/svg" xmlns:xlink="http://www.w3.org/1999/xlink">
	<desc>
			Created with Pixso.
	</desc>
	<defs/>
	<path id="Vector" d="M8 8.50012C5.88672 8.50012 4.16699 6.78015 4.16699 4.66687C4.16699 2.55347 5.88672 0.833496 8 0.833496C10.1133 0.833496 11.834 2.55347 11.834 4.66687C11.834 6.78015 10.1133 8.50012 8 8.50012ZM8 1.8335C6.44043 1.8335 5.16699 3.10681 5.16699 4.66687C5.16699 6.22681 6.44043 7.50012 8 7.50012C9.56055 7.50012 10.834 6.22681 10.834 4.66687C10.834 3.10681 9.56055 1.8335 8 1.8335Z" fill="#7339F5" fill-opacity="1.000000" fill-rule="nonzero"/>
	<path id="Vector" d="M13.7266 15.1666C13.4531 15.1666 13.2266 14.9399 13.2266 14.6666C13.2266 12.3667 10.8799 10.5 8 10.5C5.12012 10.5 2.77344 12.3667 2.77344 14.6666C2.77344 14.9399 2.54688 15.1666 2.27344 15.1666C2 15.1666 1.77344 14.9399 1.77344 14.6666C1.77344 11.8199 4.56641 9.5 8 9.5C11.4336 9.5 14.2266 11.8199 14.2266 14.6666C14.2266 14.9399 14 15.1666 13.7266 15.1666Z" fill="#7339F5" fill-opacity="1.000000" fill-rule="nonzero"/>
	<g opacity="0.000000"/>
</svg>
