<svg width="15.231445" height="15.497803" viewBox="0 0 15.2314 15.4978" fill="none" xmlns="http://www.w3.org/2000/svg" xmlns:xlink="http://www.w3.org/1999/xlink">
	<desc>
			Created with Pixso.
	</desc>
	<defs/>
	<path id="Vector" d="M11.4609 4.94946C11.4541 5.31787 11.6875 5.80664 11.9854 6.02612L13.7422 7.35791C14.8682 8.20776 14.6836 9.24902 13.3379 9.67407L11.0498 10.3896C10.668 10.51 10.2637 10.928 10.165 11.3174L9.61914 13.3999C9.1875 15.0432 8.11035 15.2063 7.21777 13.7612L5.97168 11.7424C5.74512 11.374 5.20605 11.0979 4.78125 11.1191L2.41602 11.2395C0.722656 11.3245 0.241211 10.3472 1.3457 9.05786L2.74805 7.42871C3.01074 7.12402 3.13086 6.55737 3.01074 6.17505L2.29492 3.88696C1.87695 2.54126 2.62793 1.79736 3.9668 2.23657L6.05664 2.92383C6.41016 3.03711 6.94141 2.95923 7.23926 2.7395L9.4209 1.16699C10.5967 0.317139 11.5391 0.812988 11.5107 2.26489L11.4609 4.94946Z" stroke="#FFFFFF" stroke-opacity="1.000000" stroke-width="1.500000" stroke-linejoin="round"/>
</svg>
