<svg width="22.000000" height="22.000000" viewBox="0 0 22 22" fill="none" xmlns="http://www.w3.org/2000/svg" xmlns:xlink="http://www.w3.org/1999/xlink">
	<desc>
			Created with Pixso.
	</desc>
	<defs>
		<linearGradient id="paint_linear_31_850_0" x1="0.000000" y1="11.000000" x2="22.000000" y2="11.000000" gradientUnits="userSpaceOnUse">
			<stop stop-color="#8A35F2"/>
			<stop offset="1.000000" stop-color="#BC4BDF"/>
		</linearGradient>
	</defs>
	<path id="Vector" d="M21.8553 20.064C20.4589 17.5234 18.2782 15.5435 15.6645 14.4438C16.9643 13.4331 17.9244 12.0244 18.4088 10.417C18.8932 8.80908 18.8775 7.08447 18.3637 5.48682C17.8499 3.88916 16.8642 2.49951 15.5461 1.51465C14.2281 0.529785 12.6446 0 11.0198 0C9.39514 0 7.81158 0.529785 6.49353 1.51465C5.17554 2.49951 4.18976 3.88916 3.67603 5.48682C3.16223 7.08447 3.14642 8.80908 3.63086 10.417C4.1153 12.0244 5.07544 13.4331 6.37518 14.4438C3.76147 15.5435 1.58087 17.5234 0.184326 20.064C0.0978394 20.208 0.0401611 20.3691 0.0147705 20.5366C-0.0106201 20.7046 -0.00323486 20.876 0.0365601 21.0405C0.076355 21.2056 0.147705 21.3604 0.246338 21.4956C0.344971 21.6313 0.468933 21.7451 0.61084 21.8301C0.752686 21.915 0.909607 21.9697 1.0722 21.9902C1.2348 22.0112 1.39984 21.998 1.55737 21.9517C1.71497 21.9048 1.86188 21.8262 1.98944 21.7192C2.117 21.6128 2.2226 21.4805 2.29993 21.3311C4.14557 18.0239 7.40497 16.0518 11.0198 16.0518C14.6348 16.0518 17.8942 18.0249 19.7398 21.3311C19.9073 21.6104 20.1732 21.811 20.481 21.8906C20.7888 21.9707 21.1144 21.9233 21.3892 21.7588C21.6639 21.5942 21.8661 21.3257 21.9532 21.0093C22.0402 20.6929 22.0051 20.354 21.8553 20.064ZM5.72333 8.02734C5.72333 6.94141 6.03394 5.87988 6.61597 4.97705C7.19794 4.07422 8.02515 3.37061 8.99298 2.95508C9.96075 2.53955 11.0258 2.43066 12.0532 2.64258C13.0806 2.85449 14.0244 3.37744 14.7651 4.14502C15.5058 4.91309 16.0103 5.89111 16.2146 6.95654C16.419 8.02148 16.3141 9.12549 15.9132 10.1284C15.5123 11.1318 14.8334 11.9893 13.9625 12.5923C13.0914 13.1958 12.0674 13.5176 11.0198 13.5176C9.6156 13.5161 8.26935 12.937 7.27643 11.9077C6.28345 10.8784 5.72491 9.48291 5.72333 8.02734Z" fill="url(#paint_linear_31_850_0)" fill-opacity="1.000000" fill-rule="nonzero"/>
</svg>
